<svg width="512" height="512" viewBox="0 0 512 512" fill="none" xmlns="http://www.w3.org/2000/svg">
  <rect width="512" height="512" rx="128" fill="#3b82f6"/>
  <path d="M256 128c-70.692 0-128 57.308-128 128s57.308 128 128 128 128-57.308 128-128-57.308-128-128-128zm0 32c17.673 0 32 14.327 32 32s-14.327 32-32 32-32-14.327-32-32 14.327-32 32-32zm-64 128h-32v-32h32v32zm32 0v-32h64v32h-64zm96 0h-32v-32h32v32zm-128 32v32h32v-32h-32zm64 0v32h64v-32h-64zm96 0v32h32v-32h-32z" fill="white"/>
  <text x="256" y="420" font-family="system-ui, sans-serif" font-size="48" font-weight="bold" text-anchor="middle" fill="white">€</text>
</svg>